<mxfile host="app.diagrams.net" modified="2022-10-31T00:44:57.901Z" agent="5.0 (Macintosh; Intel Mac OS X 10_15_7) AppleWebKit/537.36 (KHTML, like Gecko) Chrome/106.0.0.0 Safari/537.36" etag="1EaFdKcs8dVdoTXmmSFl" version="20.5.1" type="github">
  <diagram id="IC40MxWoUUo6NMeB7cXm" name="第 1 页">
    <mxGraphModel dx="946" dy="1783" grid="1" gridSize="10" guides="1" tooltips="1" connect="1" arrows="1" fold="1" page="1" pageScale="1" pageWidth="827" pageHeight="1169" math="0" shadow="0">
      <root>
        <mxCell id="0" />
        <mxCell id="1" parent="0" />
        <mxCell id="bMtqZg7JfjQvucvu05Us-1" value="User" style="shape=umlActor;verticalLabelPosition=bottom;verticalAlign=top;html=1;outlineConnect=0;fillColor=#B2C9AB;strokeColor=#788AA3;fontColor=#46495D;strokeWidth=7;fontFamily=Times New Roman;fontStyle=1;fontSize=14;" vertex="1" parent="1">
          <mxGeometry x="70" y="180" width="80" height="120" as="geometry" />
        </mxCell>
        <mxCell id="bMtqZg7JfjQvucvu05Us-4" value="Select Coffee Type" style="ellipse;whiteSpace=wrap;html=1;fillColor=#B2C9AB;strokeColor=#788AA3;fontColor=#46495D;strokeWidth=3;fontFamily=Times New Roman;fontStyle=1;fontSize=14;" vertex="1" parent="1">
          <mxGeometry x="270" y="20" width="130" height="80" as="geometry" />
        </mxCell>
        <mxCell id="bMtqZg7JfjQvucvu05Us-6" value="Place Cup on Coffee&lt;br style=&quot;font-size: 14px;&quot;&gt;Machine" style="ellipse;whiteSpace=wrap;html=1;fillColor=#B2C9AB;strokeColor=#788AA3;fontColor=#46495D;strokeWidth=3;fontFamily=Times New Roman;fontStyle=1;fontSize=14;" vertex="1" parent="1">
          <mxGeometry x="270" y="240" width="130" height="80" as="geometry" />
        </mxCell>
        <mxCell id="bMtqZg7JfjQvucvu05Us-8" value="" style="endArrow=none;html=1;rounded=0;entryX=0;entryY=0.5;entryDx=0;entryDy=0;fillColor=#B2C9AB;strokeColor=#788AA3;fontColor=#46495D;strokeWidth=3;" edge="1" parent="1" source="bMtqZg7JfjQvucvu05Us-1" target="bMtqZg7JfjQvucvu05Us-4">
          <mxGeometry width="50" height="50" relative="1" as="geometry">
            <mxPoint x="300" y="360" as="sourcePoint" />
            <mxPoint x="350" y="310" as="targetPoint" />
          </mxGeometry>
        </mxCell>
        <mxCell id="bMtqZg7JfjQvucvu05Us-11" value="Take the Coffee" style="ellipse;whiteSpace=wrap;html=1;fillColor=#B2C9AB;strokeColor=#788AA3;fontColor=#46495D;strokeWidth=3;fontFamily=Times New Roman;fontStyle=1;fontSize=14;" vertex="1" parent="1">
          <mxGeometry x="270" y="450" width="130" height="80" as="geometry" />
        </mxCell>
        <mxCell id="bMtqZg7JfjQvucvu05Us-12" value="" style="endArrow=none;html=1;rounded=0;entryX=0;entryY=0.5;entryDx=0;entryDy=0;fillColor=#B2C9AB;strokeColor=#788AA3;fontColor=#46495D;strokeWidth=3;" edge="1" parent="1" target="bMtqZg7JfjQvucvu05Us-6">
          <mxGeometry width="50" height="50" relative="1" as="geometry">
            <mxPoint x="160" y="280" as="sourcePoint" />
            <mxPoint x="280" y="220" as="targetPoint" />
          </mxGeometry>
        </mxCell>
        <mxCell id="bMtqZg7JfjQvucvu05Us-13" value="" style="endArrow=none;html=1;rounded=0;entryX=0;entryY=0.5;entryDx=0;entryDy=0;fillColor=#B2C9AB;strokeColor=#788AA3;fontColor=#46495D;strokeWidth=3;" edge="1" parent="1" target="bMtqZg7JfjQvucvu05Us-11">
          <mxGeometry width="50" height="50" relative="1" as="geometry">
            <mxPoint x="130" y="310" as="sourcePoint" />
            <mxPoint x="240" y="330" as="targetPoint" />
          </mxGeometry>
        </mxCell>
        <mxCell id="bMtqZg7JfjQvucvu05Us-14" value="Coffee Machine Maintainer" style="shape=umlActor;verticalLabelPosition=bottom;verticalAlign=top;html=1;outlineConnect=0;fillColor=#B2C9AB;strokeColor=#788AA3;fontColor=#46495D;strokeWidth=7;fontFamily=Times New Roman;fontStyle=1;fontSize=14;" vertex="1" parent="1">
          <mxGeometry x="700" y="170" width="80" height="120" as="geometry" />
        </mxCell>
        <mxCell id="bMtqZg7JfjQvucvu05Us-17" value="Maintain the Software" style="ellipse;whiteSpace=wrap;html=1;fillColor=#B2C9AB;strokeColor=#788AA3;fontColor=#46495D;strokeWidth=3;fontFamily=Times New Roman;fontStyle=1;fontSize=14;" vertex="1" parent="1">
          <mxGeometry x="490" y="90" width="130" height="80" as="geometry" />
        </mxCell>
        <mxCell id="bMtqZg7JfjQvucvu05Us-18" value="Maintain the Hardware" style="ellipse;whiteSpace=wrap;html=1;fillColor=#B2C9AB;strokeColor=#788AA3;fontColor=#46495D;strokeWidth=3;fontFamily=Times New Roman;fontStyle=1;fontSize=14;" vertex="1" parent="1">
          <mxGeometry x="490" y="380" width="130" height="80" as="geometry" />
        </mxCell>
        <mxCell id="bMtqZg7JfjQvucvu05Us-19" value="" style="endArrow=none;html=1;rounded=0;strokeColor=#788AA3;fontColor=#46495D;fillColor=#B2C9AB;entryX=1;entryY=0.5;entryDx=0;entryDy=0;strokeWidth=3;fontFamily=Times New Roman;fontStyle=1;fontSize=14;" edge="1" parent="1" target="bMtqZg7JfjQvucvu05Us-17">
          <mxGeometry width="50" height="50" relative="1" as="geometry">
            <mxPoint x="690" y="220" as="sourcePoint" />
            <mxPoint x="520" y="290" as="targetPoint" />
          </mxGeometry>
        </mxCell>
        <mxCell id="bMtqZg7JfjQvucvu05Us-20" value="" style="endArrow=none;html=1;rounded=0;strokeColor=#788AA3;fontColor=#46495D;fillColor=#B2C9AB;exitX=1;exitY=0.5;exitDx=0;exitDy=0;strokeWidth=3;fontFamily=Times New Roman;fontStyle=1;fontSize=14;" edge="1" parent="1" source="bMtqZg7JfjQvucvu05Us-18">
          <mxGeometry width="50" height="50" relative="1" as="geometry">
            <mxPoint x="470" y="340" as="sourcePoint" />
            <mxPoint x="690" y="320" as="targetPoint" />
          </mxGeometry>
        </mxCell>
        <mxCell id="bMtqZg7JfjQvucvu05Us-22" value="Empty the Trash Can" style="ellipse;whiteSpace=wrap;html=1;fillColor=#B2C9AB;strokeColor=#788AA3;fontColor=#46495D;strokeWidth=3;fontFamily=Times New Roman;fontStyle=1;fontSize=14;" vertex="1" parent="1">
          <mxGeometry x="340" y="130" width="130" height="80" as="geometry" />
        </mxCell>
        <mxCell id="bMtqZg7JfjQvucvu05Us-23" value="Rinse the Mixer Cup" style="ellipse;whiteSpace=wrap;html=1;fillColor=#B2C9AB;strokeColor=#788AA3;fontColor=#46495D;strokeWidth=3;fontFamily=Times New Roman;fontStyle=1;fontSize=14;" vertex="1" parent="1">
          <mxGeometry x="340" y="330" width="130" height="80" as="geometry" />
        </mxCell>
        <mxCell id="bMtqZg7JfjQvucvu05Us-24" value="" style="endArrow=none;html=1;rounded=0;strokeColor=#788AA3;fontColor=#46495D;fillColor=#B2C9AB;entryX=0;entryY=0.5;entryDx=0;entryDy=0;strokeWidth=3;" edge="1" parent="1" target="bMtqZg7JfjQvucvu05Us-22">
          <mxGeometry width="50" height="50" relative="1" as="geometry">
            <mxPoint x="160" y="230" as="sourcePoint" />
            <mxPoint x="310" y="160" as="targetPoint" />
          </mxGeometry>
        </mxCell>
        <mxCell id="bMtqZg7JfjQvucvu05Us-25" value="" style="endArrow=none;html=1;rounded=0;strokeColor=#788AA3;fontColor=#46495D;fillColor=#B2C9AB;entryX=0;entryY=0.5;entryDx=0;entryDy=0;strokeWidth=3;" edge="1" parent="1" target="bMtqZg7JfjQvucvu05Us-23">
          <mxGeometry width="50" height="50" relative="1" as="geometry">
            <mxPoint x="160" y="300" as="sourcePoint" />
            <mxPoint x="320" y="170" as="targetPoint" />
          </mxGeometry>
        </mxCell>
        <mxCell id="bMtqZg7JfjQvucvu05Us-26" value="" style="endArrow=none;html=1;rounded=0;strokeColor=#788AA3;fontColor=#46495D;fillColor=#B2C9AB;exitX=1;exitY=0.5;exitDx=0;exitDy=0;strokeWidth=3;fontFamily=Times New Roman;fontStyle=1;fontSize=14;" edge="1" parent="1" source="bMtqZg7JfjQvucvu05Us-22">
          <mxGeometry width="50" height="50" relative="1" as="geometry">
            <mxPoint x="440" y="160" as="sourcePoint" />
            <mxPoint x="670" y="230" as="targetPoint" />
          </mxGeometry>
        </mxCell>
        <mxCell id="bMtqZg7JfjQvucvu05Us-27" value="" style="endArrow=none;html=1;rounded=0;strokeColor=#788AA3;fontColor=#46495D;fillColor=#B2C9AB;exitX=1;exitY=0.5;exitDx=0;exitDy=0;strokeWidth=3;fontFamily=Times New Roman;fontStyle=1;fontSize=14;" edge="1" parent="1" source="bMtqZg7JfjQvucvu05Us-23">
          <mxGeometry width="50" height="50" relative="1" as="geometry">
            <mxPoint x="450" y="170" as="sourcePoint" />
            <mxPoint x="670" y="280" as="targetPoint" />
          </mxGeometry>
        </mxCell>
        <mxCell id="bMtqZg7JfjQvucvu05Us-28" value="" style="endArrow=none;dashed=1;html=1;dashPattern=1 3;strokeWidth=3;rounded=0;strokeColor=#788AA3;fontFamily=Times New Roman;fontSize=14;fontColor=#46495D;fillColor=#B2C9AB;startArrow=none;" edge="1" parent="1" source="bMtqZg7JfjQvucvu05Us-32">
          <mxGeometry width="50" height="50" relative="1" as="geometry">
            <mxPoint x="240" y="-10" as="sourcePoint" />
            <mxPoint x="420" y="-10" as="targetPoint" />
          </mxGeometry>
        </mxCell>
        <mxCell id="bMtqZg7JfjQvucvu05Us-29" value="" style="endArrow=none;dashed=1;html=1;dashPattern=1 3;strokeWidth=3;rounded=0;strokeColor=#788AA3;fontFamily=Times New Roman;fontSize=14;fontColor=#46495D;fillColor=#B2C9AB;" edge="1" parent="1">
          <mxGeometry width="50" height="50" relative="1" as="geometry">
            <mxPoint x="240" y="120" as="sourcePoint" />
            <mxPoint x="420" y="120" as="targetPoint" />
          </mxGeometry>
        </mxCell>
        <mxCell id="bMtqZg7JfjQvucvu05Us-30" value="" style="endArrow=none;dashed=1;html=1;dashPattern=1 3;strokeWidth=3;rounded=0;strokeColor=#788AA3;fontFamily=Times New Roman;fontSize=14;fontColor=#46495D;fillColor=#B2C9AB;" edge="1" parent="1">
          <mxGeometry width="50" height="50" relative="1" as="geometry">
            <mxPoint x="240" y="-10" as="sourcePoint" />
            <mxPoint x="240" y="120" as="targetPoint" />
          </mxGeometry>
        </mxCell>
        <mxCell id="bMtqZg7JfjQvucvu05Us-31" value="" style="endArrow=none;dashed=1;html=1;dashPattern=1 3;strokeWidth=3;rounded=0;strokeColor=#788AA3;fontFamily=Times New Roman;fontSize=14;fontColor=#46495D;fillColor=#B2C9AB;" edge="1" parent="1">
          <mxGeometry width="50" height="50" relative="1" as="geometry">
            <mxPoint x="420" y="-10" as="sourcePoint" />
            <mxPoint x="420" y="120" as="targetPoint" />
          </mxGeometry>
        </mxCell>
        <mxCell id="bMtqZg7JfjQvucvu05Us-32" value="System Boundary" style="text;strokeColor=none;fillColor=none;align=left;verticalAlign=middle;spacingLeft=4;spacingRight=4;overflow=hidden;points=[[0,0.5],[1,0.5]];portConstraint=eastwest;rotatable=0;strokeWidth=3;fontFamily=Times New Roman;fontSize=14;fontColor=#46495D;fontStyle=1" vertex="1" parent="1">
          <mxGeometry x="300" y="-10" width="120" height="30" as="geometry" />
        </mxCell>
        <mxCell id="bMtqZg7JfjQvucvu05Us-33" value="" style="endArrow=none;dashed=1;html=1;dashPattern=1 3;strokeWidth=3;rounded=0;strokeColor=#788AA3;fontFamily=Times New Roman;fontSize=14;fontColor=#46495D;fillColor=#B2C9AB;entryX=0.992;entryY=-0.05;entryDx=0;entryDy=0;entryPerimeter=0;" edge="1" parent="1" target="bMtqZg7JfjQvucvu05Us-32">
          <mxGeometry width="50" height="50" relative="1" as="geometry">
            <mxPoint x="240" y="-10" as="sourcePoint" />
            <mxPoint x="420" y="-10" as="targetPoint" />
          </mxGeometry>
        </mxCell>
      </root>
    </mxGraphModel>
  </diagram>
</mxfile>
